<svg xmlns="http://www.w3.org/2000/svg" width="516" height="516" viewBox="0 0 516 516">
    <path
        d="m239.5 515.42-.41-.06-1.5-.19-.85-.1-2.15-.26-7.59-.87-6.08-.68-12.24-2.15-6.13-1.2-12.26-3.13-6.11-1.69-12.14-4.08-6.04-2.14-11.89-4.96-5.9-2.58-11.51-5.78-5.69-2.98-11.01-6.55-5.42-3.36-10.38-7.26-14.7-11.62-4.51-3.87-8.54-8.17-4.2-4.15-7.91-8.7-3.87-4.41-7.26-9.19-3.55-4.65-6.59-9.63-3.21-4.87-5.91-10.03-2.88-5.06-5.22-10.38-2.52-5.24-4.51-10.7-2.16-5.38-3.79-10.96-1.81-5.52-3.05-11.18-1.43-5.62-2.3-11.37-1.05-5.7-1.54-11.5-.67-5.77-.75-11.59-.28-5.8.04-11.65.13-5.82.85-11.64.53-5.82 1.67-11.6 3.46-17.31 1.06-4.49 2.59-9.04 1.37-4.52 3.17-9.03 1.66-4.51 3.71-8.96 1.93-4.47 4.22-8.82 2.17-4.38 4.71-8.61 2.4-4.27 5.14-8.33 2.62-4.12 5.55-7.97 8.74-11.48 1.22-1.51 2.97-3.43 1.55-1.77 3.51-3.8 1.81-1.93 3.87-4.01 1.96-2.01L78.66 75l2.04-2.01 4.07-3.9 2.02-1.91 3.91-3.59 1.92-1.74 3.58-3.1 4.8-3.92 3.85-2.98 7.86-5.61 3.96-2.74 8.05-5.12 4.05-2.51 8.22-4.64 4.14-2.26 8.39-4.16 4.22-2.01 8.55-3.67 4.29-1.77 8.69-3.18 4.36-1.53 8.81-2.68 4.43-1.28 8.93-2.19 4.48-1.03 9.03-1.68 4.53-.78 9.13-1.18 4.57-.53 9.21-.68 4.61-.27 9.27-.17 4.64-.02 9.33.34 4.66.23 9.37.86 4.69.5 9.39 1.37 14.11 2.65 1.61.34 3.67.91 1.9.49 4.11 1.16 2.1.6 4.41 1.35 2.22.69 4.52 1.48 4.52 1.51 8.7 3.17 2.1.79 3.89 1.56 5.24 2.24 4.94 2.22 9.75 5.01 4.86 2.59 9.54 5.69 4.73 2.93 9.24 6.31 4.58 3.22 8.86 6.87 4.38 3.5 8.41 7.36 4.14 3.74 7.88 7.8 3.87 3.95 7.27 8.17 10.13 12.6 3.41 4.57 6.28 9.18 3.05 4.61 5.57 9.33 2.7 4.69 4.88 9.54 2.36 4.81 4.23 9.82 2.03 4.95 3.6 10.18 1.73 5.14 3.01 10.6 1.43 5.36 2.43 11.09 3.05 17.27.12.81.22 1.92.1 1.01.19 2.28.08 1.17.15 2.59.07 1.32.12 2.84.1 2.88.12 6.32.04 3.21-.02 6.66-.02 3.33-.14 6.59-.09 3.25-.27 6.1-.07 1.48-.17 2.79-.09 1.37-.2 2.53-.1 1.22-.23 2.22-.38 2.92-.55 3.63-1.28 7.15-.67 3.55-1.51 7.01-.78 3.48-1.74 6.86-.9 3.41-1.97 6.71-1.02 3.33-2.2 6.57-1.13 3.26-2.44 6.42-1.25 3.19-2.67 6.28-1.36 3.12-2.9 6.13-1.48 3.05-3.14 6-1.6 2.97-3.37 5.85-1.71 2.91-3.61 5.71-1.83 2.84-3.84 5.57-1.95 2.77-4.07 5.43-2.07 2.7-4.31 5.3-2.18 2.63-4.55 5.15-7.08 7.59-2.5 2.56-5.07 4.94-2.56 2.44-5.21 4.69-2.62 2.31-5.34 4.43-2.68 2.18-5.47 4.17-2.76 2.06-5.6 3.92-2.82 1.93-5.74 3.67-2.89 1.8-5.87 3.41-2.96 1.68-6.01 3.17-3.03 1.55-6.15 2.91-3.09 1.43-6.3 2.66-3.16 1.3-6.44 2.41-3.23 1.18-6.58 2.16-3.31 1.05-6.72 1.92-3.38.93-6.87 1.67-3.45.8-7.02 1.43-10.69 1.85-.62.1-1.59.19-.85.09-1.99.19-1.04.09-2.32.18-1.2.09-2.6.16-2.66.17-5.87.29-2.98.14-6.15.22-3.06.11-5.94.14-2.89.06-5.21.04h-1.23l-2.25-.01-1.08-.01-1.9-.05-.9-.03-1.48-.07-.69-.05m51.78-14.12 3.77-.46 7.5-1.2 3.74-.64 7.43-1.59 3.71-.85 7.35-1.97 3.67-1.03 7.26-2.35 3.62-1.22 7.16-2.71 3.56-1.4 7.04-3.07 3.51-1.58 6.9-3.42 3.44-1.75 6.76-3.77 3.36-1.92 6.6-4.1 3.28-2.09 6.43-4.43 3.19-2.26 6.25-4.74 3.1-2.42 6.04-5.06 3-2.57 5.83-5.36 2.89-2.72 5.6-5.67 2.77-2.86 5.37-5.96 7.76-9.24 3.51-4.38 6.52-9.04 3.17-4.57 5.86-9.43 2.85-4.76 5.19-9.78 2.51-4.94 4.52-10.12 2.18-5.11 3.84-10.45 1.83-5.27 3.15-10.77 1.49-5.42 2.46-11.06 2.9-16.9.12-.87.21-1.97.1-1.02.18-2.24.18-2.31.24-5.27.1-2.72.11-5.86.04-2.98-.02-6.13-.02-3.07-.15-6.08-.09-3.01-.27-5.71-.15-2.79-.39-5.03-.11-1.2-.23-2.22-.38-3.02-.76-5.22-1.94-10.26-1.05-5.1-2.5-10.01-1.32-4.98-3.06-9.74-1.59-4.83-3.59-9.45-1.86-4.69-4.11-9.14-2.12-4.53-4.63-8.82-2.37-4.37-5.12-8.47-2.62-4.2-5.61-8.11-2.86-4.01-6.08-7.74-3.09-3.82-6.54-7.35-3.32-3.62-6.99-6.92-3.54-3.41-7.42-6.5-3.76-3.19-7.84-6.05-3.97-2.97-8.25-5.58-4.17-2.73-8.64-5.09-13.4-7.08-5.85-2.86-11.66-4.93-5.84-2.34-11.87-3.95-2.99-.93-6.08-1.69-3.05-.82-6.23-1.48-3.14-.71-6.41-1.28-9.88-1.69-2.37-.37-5.45-.61-2.81-.28-6.13-.43-3.13-.2-6.55-.26-3.3-.11-6.71-.09-3.35-.02-6.61.09-3.27.07-6.24.27-3.05.16-5.61.44-7.42.88-4.88.74-9.62 1.9-4.78 1.02-9.42 2.44-4.68 1.28-9.2 2.97-4.58 1.55-8.96 3.49-4.45 1.81-8.72 3.98-4.32 2.06-8.44 4.48-4.19 2.3-8.15 4.96-4.04 2.54-7.85 5.42-3.88 2.77-7.53 5.88-3.72 3-7.18 6.31-3.55 3.22-6.82 6.74-3.36 3.43-6.45 7.16-3.17 3.63-6.05 7.56-2.98 3.83-5.63 7.96-2.77 4.02-5.2 8.33-7.31 12.9-1.54 2.93-2.89 5.91-1.41 2.96-2.63 6.02-1.28 3.02-2.38 6.15-1.16 3.1-2.14 6.32-1.04 3.18-1.91 6.53-.92 3.29-1.69 6.75-.82 3.41-1.48 7.01-2 10.86-.16.98-.29 2.24-.15 1.17-.25 2.59-.12 1.33-.22 2.88-.1 1.47-.17 3.12-.16 3.17-.2 6.85-.09 3.48-.04 7.16.01 3.58.12 7.07.08 3.48.29 6.56.08 1.59.19 3.02.11 1.48.23 2.75.12 1.34.28 2.44.46 3.25 1 6.07 2.6 11.9 1.39 5.9 3.36 11.53 1.77 5.72 4.09 11.15 2.14 5.52 4.8 10.73 2.49 5.31 5.48 10.28 2.83 5.09 6.15 9.81 3.15 4.84 6.78 9.31 3.47 4.58 7.4 8.78 3.77 4.32 7.97 8.21 4.06 4.04 8.54 7.63 4.34 3.73 9.07 7.01 4.6 3.43 9.59 6.36 4.85 3.1 10.07 5.69 5.1 2.76 10.53 4.99 5.32 2.4 10.97 4.26 16.91 5.53 3.7 1.07 7.78 1.85 3.94.87 8.18 1.48 4.13.68 8.5 1.09 4.28.49 8.73.69 4.38.3 8.87.29 4.44.1 8.91-.11 4.46-.11 8.87-.52 4.43-.31M242 489.3l-3.46-.27-6.89-.77-3.44-.42-6.82-1.07-3.41-.57-6.76-1.36-3.36-.72-6.68-1.66-3.33-.86-6.59-1.94-3.28-1.01-6.48-2.22-3.23-1.15-6.37-2.5-3.17-1.29-6.25-2.77-3.11-1.42-6.12-3.04-3.04-1.55-5.97-3.3-2.97-1.69-5.81-3.56-2.89-1.81-5.65-3.81-2.81-1.94-5.48-4.06-2.71-2.06-5.29-4.3-2.62-2.18-5.09-4.55-7.41-7.07-2.34-2.34-4.52-4.82-2.23-2.44-4.3-5.01-2.12-2.52-4.07-5.18-2.01-2.62-3.85-5.34-1.89-2.69-3.61-5.51-1.78-2.77-3.37-5.64-1.66-2.84-3.13-5.79-1.53-2.91-2.89-5.91-1.41-2.97-2.63-6.03-1.28-3.03-2.38-6.15-1.16-3.08-2.12-6.24-1.02-3.13-1.86-6.33-.89-3.18-1.59-6.41-.76-3.22-1.31-6.49-.62-3.25-1.04-6.55-1.23-9.88-.21-2.03-.3-4.65-.12-2.4-.14-5.25-.05-2.67.02-5.61.02-2.83.16-5.76.1-2.88.29-5.68.17-2.82.42-5.39.23-2.64.54-4.88.95-6.49.65-3.71 1.53-7.3.8-3.63 1.83-7.16.95-3.56 2.12-7.01 1.1-3.49 2.42-6.85 1.24-3.41 2.71-6.68 1.39-3.33 2.99-6.51 1.53-3.24 3.28-6.34 1.67-3.15 3.55-6.15 1.81-3.06 3.82-5.96 1.95-2.96 4.09-5.77L74.5 118l4.36-5.56 2.21-2.76 4.62-5.35 2.35-2.66 4.88-5.13L95.39 94l5.13-4.92 2.6-2.43 5.38-4.68 8.35-6.76 3.24-2.5 6.71-4.73 3.39-2.32 6.97-4.35 3.52-2.13 7.23-3.98 3.63-1.94 7.45-3.59 3.74-1.75 7.64-3.2 3.83-1.55 7.8-2.81 3.92-1.35 7.94-2.4 3.99-1.15 8.05-2 4.04-.94 8.15-1.58 4.08-.74 8.2-1.16 4.11-.53 8.24-.73 4.12-.31 8.25-.3 4.13-.1 8.23.14 4.11.13 8.19.58 4.09.35 8.12 1.04 12.08 2.07 1.39.28 2.31.46 1.08.21 1.77.32.84.14 1.35.19.64.08 1.05.07.99.03 1.53-.29 2.49-.96 1.68-.75 3.53-.98 1.78-.41 3.65-.34 1.84-.1 3.69.28 1.85.21 3.65.87 1.82.51 3.51 1.44 1.74.79 3.29 1.98 1.61 1.06 2.98 2.5 4.03 4.31 1.06 1.35 1.85 2.8.4.65.62 1.14.53 1.28.1.41.78 1.01.48.54 1.6 1.32.9.71 2.48 1.68 4.76 2.99 3 1.81 6.04 3.98 3.02 2.04 6.01 4.39 3 2.24 5.91 4.74 2.94 2.4 5.73 5.01 2.84 2.53 5.48 5.22 2.7 2.62 5.14 5.35 2.52 2.69 4.74 5.42 6.55 8.13 2.14 2.81 4.06 5.74 2 2.89 3.8 5.88 1.86 2.96 3.52 6.02 1.72 3.03 3.23 6.15 1.59 3.09 2.95 6.27 1.44 3.15 2.66 6.38 1.3 3.21 2.38 6.48 1.15 3.25 2.09 6.58 1 3.3 1.79 6.65.86 3.34 1.5 6.73.7 3.38 1.2 6.79.56 3.41.89 6.85.41 3.43.58 6.9.26 3.45.27 6.93.1 3.47-.03 6.96-.41 10.47-.35 5.73-1.37 11.37-.79 5.67-2.25 11.21-1.23 5.59-3.11 11.02-1.66 5.48-3.97 10.8-2.08 5.37-4.81 10.55-2.5 5.23-5.63 10.26-2.92 5.09-6.44 9.94-10.57 14.51-.53.67-1.23 1.48-.63.76-1.42 1.63-1.47 1.66-3.41 3.67-1.77 1.88-3.86 3.95-1.97 1.99-4.12 4.03-2.07 2-4.16 3.92-2.07 1.92-4.01 3.61-1.97 1.74-3.65 3.1-4.86 3.85-1.55 1.16-3.33 2.37-1.7 1.2-3.58 2.4-3.62 2.41-7.63 4.71-3.82 2.31-7.57 4.22-1.86 1.01-3.59 1.86-5.14 2.51-4.04 1.89-8.5 3.42-4.31 1.64-8.96 2.92-4.52 1.39-9.29 2.39-4.67 1.12-9.5 1.85-4.77.85-9.6 1.28-4.8.57-9.57.69-4.78.27-9.43.08-4.69-.03m43.25-14.78 1.64-.29 3.02-.55 1.44-.27 2.43-.47 1.11-.23 1.56-.34.33-.07.44-.11.31-.12.01-.01-.45-.58-.31-.39-1.05-1.3-.59-.73-1.61-1.97-.86-1.06-2.12-2.59-1.12-1.36-2.6-3.15-1.35-1.65-3.03-3.67-1.57-1.9-3.43-4.15-1.76-2.13-3.78-4.58-1.93-2.33-4.1-4.96-2.09-2.52-4.38-5.28-2.22-2.68-4.61-5.57-2.33-2.81-4.81-5.8-4.86-5.85-10.12-12.21-5.11-6.15-10.4-12.52-5.2-6.27L208.57 354l-5.14-6.18-9.99-12.01-2.45-2.95-4.8-5.76-2.37-2.85-4.6-5.52-2.27-2.72-4.35-5.23-2.15-2.57-4.07-4.88-2-2.4-3.75-4.49-1.84-2.2-3.39-4.06-1.65-1.97-3-3.58-1.44-1.72-2.56-3.05-1.22-1.45-2.08-2.47-.97-1.16-1.56-1.84-.71-.84-1-1.16-.83-.94-.32-.33-.79-.1-.24.03-.58.27-.31.18-.79.58-.43.34-1.06.94-.57.52-1.4 1.35-.75.73-1.8 1.8-3.2 3.28-1.91 1.95-3.6 3.98-1.77 1.99-3.32 4.05-1.63 2.03-3.04 4.1-1.48 2.05-2.74 4.14-1.33 2.07-2.43 4.15-1.17 2.08-2.11 4.16-1.01 2.08-1.77 4.14-2.27 6.17-1.06 3.24-1.62 6.24-.36 1.58-.64 3.25-.3 1.64-.5 3.47-.24 1.77-.39 3.81-.19 1.96-.3 4.26-.14 2.19-.22 4.84-.26 8.02-.58 22.5 7.27 8.3 2.06 2.36 4.34 4.59 2.2 2.27 4.59 4.39 2.32 2.18 4.84 4.2 2.44 2.07 5.06 3.99 2.55 1.97 5.27 3.78 2.66 1.86 5.47 3.55 2.75 1.75 5.65 3.33 2.84 1.63 5.82 3.1 2.92 1.51 5.97 2.85 3 1.39 6.1 2.59 3.07 1.27 6.22 2.33 3.12 1.13 6.33 2.07 3.18 1 6.42 1.79 3.22.86 6.5 1.51 3.26.71 6.56 1.22 9.9 1.49 1.96.25 4.6.37 2.39.17 5.29.21 2.7.08 5.72.05 2.88.01 5.9-.1 2.95-.07 5.83-.25 2.89-.14 5.51-.39 2.69-.21 4.95-.52 2.38-.28m75.24-25.84 2.45-1.39 4.68-2.83 2.31-1.42 4.44-2.89 4.39-2.93 8.32-6.29 2.06-1.62 4.09-3.42 2.04-1.74 4.09-3.69 2.05-1.88 4.16-4 6.38-6.41 2.21-2.29 4.14-4.48 2.03-2.24 3.81-4.44 1.86-2.22 3.52-4.45 1.72-2.24 3.27-4.53 1.61-2.29 3.07-4.68 1.51-2.36 2.92-4.89 1.44-2.48 2.8-5.16 4.14-8.12 1.89-3.88 3.39-7.81 1.63-3.92 2.87-7.91 1.37-3.97 2.35-8.03 1.11-4.03 1.84-8.18.85-4.11 1.33-8.35.6-4.2.83-8.55.35-4.3.32-8.76-.06-13.42-.15-4.56-.68-9.01-.41-4.48-1.2-8.87-.67-4.42-1.72-8.71-.92-4.34-2.22-8.54-1.17-4.25-2.72-8.36-1.42-4.15-3.2-8.16-1.65-4.05-3.68-7.93-1.9-3.94-4.14-7.7-2.13-3.82-4.6-7.44-2.35-3.69-5.05-7.19-2.58-3.55-5.5-6.9-2.79-3.41-5.93-6.6-3.01-3.26-6.34-6.28-3.23-3.1-6.76-5.95-3.43-2.94-7.16-5.6-11.19-8-1.2-.81-2.22-1.47-1.07-.71-1.8-1.16-.83-.54-1.18-.73-.25-.15-.34-.19-.26-.12h-.06l-.19.47-.11.3-.27.96-.14.54-.32 1.34-.48 2.3-.42 2.12-1.15 4.18-.63 2.08-1.62 4.16-.88 2.08-2.14 4.21-1.15 2.13-2.73 4.37-1.44 2.21-3.38 4.61-1.77 2.34-4.07 4.93-2.13 2.52-4.83 5.35-8.16 8.58-3.24 3.31-6.26 6.27-3.13 3.09-6.3 6.05-3.18 3.03-6.67 6.13-3.41 3.1-7.37 6.5-1.91 1.66-3.99 3.45-2.03 1.75-4.29 3.64-2.19 1.85-4.62 3.87-2.35 1.97-5 4.14-2.55 2.1-5.42 4.45-2.76 2.26-5.88 4.79-2.99 2.44-6.38 5.17-10.18 8.21-2.43 1.96-4.43 3.57-2.15 1.73-3.91 3.15-1.89 1.53-3.42 2.76-1.65 1.33-2.95 2.39-1.43 1.15-2.53 2.05-1.22.99-2.13 1.73-1.03.84-1.77 1.45-.85.69-1.45 1.2-.69.57-1.15.96-.55.46-.89.76-.42.36-.66.58-.31.28-.47.43-.43.41-.41.48-.21.44v.02l.42.57.28.36.98 1.22.55.68 1.47 1.83.8.98 1.95 2.39 1.04 1.26 2.38 2.91 1.25 1.52 2.79 3.39 1.44 1.75 3.16 3.83 1.62 1.96 3.49 4.23 1.78 2.15 3.78 4.58 1.93 2.33 4.04 4.89 2.06 2.48 4.27 5.15 2.16 2.61 4.46 5.38 4.5 5.43 9.42 11.35 4.76 5.73 9.73 11.7 4.87 5.87 9.75 11.71 4.85 5.83 9.48 11.38 4.68 5.62 8.94 10.71 2.19 2.62 4.22 5.06 2.08 2.5 3.99 4.77 1.97 2.35 3.72 4.45 1.82 2.17 3.42 4.08 1.67 1.99 3.08 3.67 1.49 1.78 2.7 3.21 1.31 1.54 2.29 2.72 1.09 1.29 1.85 2.18.87 1.02 1.37 1.6 1.47 1.69.88 1 1.67 1.82.81.86 1.39 1.44.64.66.96.9.78.57h.1l.88-.4.54-.26 1.61-.84.87-.47 2.13-1.16 1.1-.61m-258.36-155.2.85-1.29 2.21-2.93 1.18-1.51 2.75-3.28 1.44-1.67 3.18-3.51 1.63-1.76 3.47-3.6 3.53-3.59 7.4-6.93 1.84-1.66 3.6-3.11 5.17-4.18 4.33-3.33 8.39-6.01 2.19-1.53 4.75-3.15 2.47-1.62 5.55-3.5 1.46-.91 3.12-1.92 1.6-.98 3.45-2.08 1.76-1.06 3.81-2.26 1.96-1.16 4.21-2.48 2.17-1.27 4.67-2.73 2.39-1.39 5.16-3 2.65-1.53 5.7-3.29 9.21-5.29 3-1.73 5.48-3.19 2.66-1.57 4.92-2.95 2.41-1.46 4.54-2.82 2.23-1.41 4.32-2.8 4.3-2.82 8.67-6.06 2.23-1.58 4.68-3.41 7.54-5.59 2.01-1.5 4.13-3.25 2.08-1.65 4.18-3.46 4.17-3.5 7.98-7.18 1.92-1.77 3.62-3.47 1.76-1.71 3.21-3.26 1.54-1.59 2.68-2.94 3.29-3.95 1.4-1.81 2.71-4.06 1.32-2.05 2.34-4.12 1.09-2.02 1.67-3.65.37-.86.55-1.54.52-1.98.21-1.14-.19-1.94-.2-.92-1.03-1.53-.63-.72-1.93-1.18-3.95-1.42-1.55-.4-2.92-.94-1.43-.49-2.69-1.13-1.31-.59-2.45-1.31-1.2-.68-2.22-1.5-1.08-.77-1.99-1.7-.96-.87-1.76-1.88-.85-.97-1.54-2.08-2.06-3.34-.74-1.37-1.18-2.87-.54-1.45-.78-2.99-.34-1.5-.39-3.05-.14-1.52.01-3.05.06-1.51.4-2.98.25-1.47.8-2.85.45-1.41 1.18-2.66 2.21-3.72.55-.77.64-1.34.11-.3.07-.45-.14-.39-.05-.03-.32-.1-.19-.06-.57-.14-.62-.15-1.88-.39-1.02-.21-2.48-.48-4.14-.76-.9-.16-2.07-.29-1.08-.14-2.39-.26-2.45-.24-5.67-.36-2.93-.16-6.32-.2-3.21-.09-6.62-.04h-3.31l-6.53.11-3.22.08-6.07.28-2.95.16-5.25.43-1.24.12-2.26.27-3.03.44-5.87 1.02-11.27 2.57-5.57 1.39-10.84 3.36-5.38 1.79-10.63 4.23-15.94 7.4-3.02 1.53-5.72 3.09-2.81 1.56-5.37 3.2-2.65 1.62-5.11 3.37-2.52 1.71-4.92 3.58-2.44 1.83-4.8 3.86-2.39 1.98-4.77 4.2-2.38 2.15-4.81 4.6-7.36 7.41-12.16 12.66.69 100.54.05 6.91.1 13.32.05 6.55.11 12.4.03 3.03.05 5.83.03 2.88.05 5.5.03 2.71.06 5.14.03 2.53.05 4.74.03 2.32.05 4.32.03 2.09.05 3.85.03 1.86.05 3.34.03 1.61.05 2.8.02 1.33.05 2.24.02 1.04.05 1.62.02.73.04.99.06.71.09.32.43-.09.13-.08.33-.36.17-.21.42-.62.22-.35.52-.89.27-.47.62-1.16.32-.62.73-1.44 1.21-2.48.68-1.41 1.68-3.26.88-1.67 1.91-3.44.96-1.71 1.9-3.23.93-1.54Z"
        fill="rgba(255,255,255,1)" />
</svg>