<svg width="161" height="80" viewBox="0 0 161 80" fill="none" xmlns="http://www.w3.org/2000/svg">
    <g clip-path="url(#clip0_5_38)">
        <g opacity="0.2">
            <path d="M115.351 5.06727L112.453 3.03809L102.307 17.528L105.205 19.5571" stroke="#B5BBC6"
                stroke-linecap="round" stroke-linejoin="round" />
            <path d="M126.945 13.1841L129.843 15.2133L119.697 29.7031L116.799 27.6739" stroke="#B5BBC6"
                stroke-linecap="round" stroke-linejoin="round" />
            <path
                d="M145.207 -12.8975L137.09 -1.30556C136.552 -0.536969 136.341 0.41393 136.504 1.33795C136.667 2.26197 137.191 3.08342 137.959 3.6216L149.551 11.7383"
                fill="#F0F1F4" />
            <path
                d="M145.207 -12.8975L137.09 -1.30556C136.552 -0.536969 136.341 0.41393 136.504 1.33795C136.667 2.26197 137.191 3.08342 137.959 3.6216L149.551 11.7383"
                stroke="#B5BBC6" stroke-linecap="round" stroke-linejoin="round" />
            <path
                d="M117.375 45.3535L88.3957 25.0617C86.8585 23.9854 85.8118 22.3425 85.486 20.4944C85.1601 18.6464 85.5817 16.7446 86.6581 15.2074L115.067 -25.3642C116.143 -26.9014 117.786 -27.948 119.634 -28.2739C121.482 -28.5998 123.384 -28.1781 124.921 -27.1018L145.207 -12.8975L149.551 11.7383L127.23 43.616C126.153 45.1531 124.51 46.1998 122.662 46.5256C120.814 46.8515 118.913 46.4299 117.375 45.3535Z"
                stroke="#B5BBC6" stroke-linecap="round" stroke-linejoin="round" />
            <path d="M115 74.9888L113.852 76.7124L122.47 82.4522L123.618 80.7286" stroke="#B5BBC6"
                stroke-linecap="round" stroke-linejoin="round" />
            <path d="M119.59 68.0942L120.738 66.3706L129.356 72.1104L128.208 73.834" stroke="#B5BBC6"
                stroke-linecap="round" stroke-linejoin="round" />
            <path
                d="M104.078 57.7627L110.973 62.3545C111.43 62.659 111.989 62.7693 112.528 62.6614C113.066 62.5534 113.54 62.236 113.844 61.7788L118.436 54.8844"
                fill="#F0F1F4" />
            <path
                d="M104.078 57.7627L110.973 62.3545C111.43 62.659 111.989 62.7693 112.528 62.6614C113.066 62.5534 113.54 62.236 113.844 61.7788L118.436 54.8844"
                stroke="#B5BBC6" stroke-linecap="round" stroke-linejoin="round" />
            <path
                d="M138.546 73.2548L127.067 90.4908C126.458 91.4051 125.511 92.04 124.434 92.2559C123.357 92.4718 122.238 92.251 121.324 91.6421L97.1933 75.5708C96.279 74.9619 95.6441 74.0147 95.4282 72.9377C95.2123 71.8607 95.4331 70.742 96.042 69.8277L104.078 57.7625L118.435 54.8842L137.395 67.5117C138.309 68.1206 138.944 69.0678 139.16 70.1448C139.376 71.2219 139.155 72.3405 138.546 73.2548Z"
                stroke="#B5BBC6" stroke-linecap="round" stroke-linejoin="round" />
            <path d="M75.3358 -6.5415L77.012 -5.32537L70.9314 3.05558L69.2552 1.83945" stroke="#B5BBC6"
                stroke-linecap="round" stroke-linejoin="round" />
            <path
                d="M69.4193 12.1927L52.6574 0.0314426C51.7683 -0.613632 51.1718 -1.58548 50.9993 -2.67031C50.8267 -3.75514 51.0922 -4.86409 51.7372 -5.75319L68.7631 -29.2199C69.4081 -30.109 70.38 -30.7054 71.4648 -30.878C72.5496 -31.0505 73.6586 -30.7851 74.5477 -30.14L86.281 -21.6271L88.5813 -7.16549L75.2039 11.2726C74.5588 12.1617 73.587 12.7582 72.5022 12.9307C71.4173 13.1033 70.3084 12.8378 69.4193 12.1927Z"
                stroke="#B5BBC6" stroke-linecap="round" stroke-linejoin="round" />
            <path
                d="M37.1523 22.4316L48.7321 30.5657C49.4999 31.105 50.4505 31.3172 51.3747 31.1556C52.299 30.9941 53.1212 30.472 53.6606 29.7042L61.7946 18.1244"
                fill="#F0F1F4" />
            <path
                d="M37.1523 22.4316L48.7321 30.5657C49.4999 31.105 50.4505 31.3172 51.3747 31.1556C52.299 30.9941 53.1212 30.472 53.6606 29.7042L61.7946 18.1244"
                stroke="#B5BBC6" stroke-linecap="round" stroke-linejoin="round" />
            <path
                d="M95.3626 50.3496L75.0275 79.299C73.9489 80.8346 72.3044 81.8788 70.4559 82.2019C68.6074 82.525 66.7062 82.1005 65.1706 81.0219L24.6414 52.5528C23.1059 51.4742 22.0617 49.8297 21.7386 47.9812C21.4155 46.1327 21.8399 44.2315 22.9186 42.696L37.1531 22.4314L61.7953 18.1242L93.6397 40.4927C95.1753 41.5713 96.2194 43.2158 96.5426 45.0643C96.8657 46.9128 96.4412 48.814 95.3626 50.3496Z"
                stroke="#B5BBC6" stroke-linecap="round" stroke-linejoin="round" />
            <path d="M44.3555 49.1074L46.389 46.2125" stroke="#B5BBC6" stroke-linecap="round" stroke-linejoin="round" />
            <path d="M55.9375 57.2417L68.1385 39.872" stroke="#B5BBC6" stroke-linecap="round" stroke-linejoin="round" />
            <path d="M67.5156 65.375L79.7166 48.0053" stroke="#B5BBC6" stroke-linecap="round" stroke-linejoin="round" />
        </g>
    </g>
    <defs>
        <clipPath id="clip0_5_38">``
            <rect width="161" height="80" fill="white" />
        </clipPath>
    </defs>
</svg>